<svg width="386" height="382" viewBox="0 0 386 382" fill="none" xmlns="http://www.w3.org/2000/svg">
<path d="M168.367 0.974505C134.265 5.85271 105.012 17.8028 77.1532 38.204C67.1291 45.5992 46.2576 66.2498 38.778 76.1659C17.2488 104.862 4.75902 135.912 0.729678 170.379C-0.747352 182.493 0.154621 211.349 2.21065 222.489C5.90913 241.674 11.1674 257.361 19.7144 274.513C30.479 295.81 41.6532 310.85 59.2398 327.756C87.6736 355.069 121.937 372.466 160.97 379.456C173.215 381.65 199.755 382.464 212.906 380.999C256.213 376.367 294.915 358.319 326.716 327.916C351.613 304.097 368.459 276.948 378.321 244.838C384.486 224.679 386.538 208.419 385.884 184.846C385.143 155.339 379.145 131.926 365.505 105.427C355.233 85.3496 343.81 70.1461 326.803 53.8088C298.452 26.4955 265.008 9.50747 225.069 2.02651C213.643 -0.0814009 180.116 -0.732088 168.367 0.974505ZM220.464 17.9625C276.343 26.663 323.51 59.8286 349.395 108.685C361.968 132.339 368.293 156.481 369.447 184.285C373.473 286.786 290.066 369.295 186.446 365.313C165.082 364.417 146.014 360.68 128.101 353.69C68.8542 330.522 28.5057 280.529 18.2335 217.529C16.2602 205.579 16.2602 176.559 18.2335 164.367C28.2576 101.204 68.9369 50.8047 128.428 27.8008C142.808 22.19 159.489 18.3716 177.816 16.5014C184.638 15.7689 212.658 16.743 220.464 17.9625Z" fill="#119FFF"/>
<path d="M181.924 58.609C167.953 61.2936 156.613 67.3874 146.097 77.7127C128.841 94.7825 122.102 117.545 127.774 139.571C132.705 158.916 147.412 176.15 166.149 184.687C175.846 189.156 181.514 190.293 193.019 190.293C204.524 190.293 210.192 189.156 219.889 184.687C227.448 181.273 232.462 177.856 238.953 171.762C264.346 147.78 267.221 111.607 245.936 84.2157C239.362 75.6788 229.09 67.6329 219.641 63.4872C208.057 58.4453 193.019 56.4972 181.924 58.609ZM206.084 75.7606C223.505 79.8245 237.803 94.2137 241.994 111.771C243.884 119.493 243.226 134.046 240.761 141.196C234.514 159.162 218.822 171.517 199.754 173.547C174.609 176.309 153.08 163.467 145.274 141.196C142.808 134.042 142.15 119.493 144.041 111.771C148.149 94.4552 162.529 79.9063 179.706 75.8425C186.032 74.2995 199.593 74.2995 206.084 75.7606Z" fill="#119FFF"/>
<path d="M170.832 208.341C131.717 213.056 102.791 222.73 76.334 240.046C66.1444 246.712 59.3225 252.728 58.6687 255.732C58.0109 258.822 59.5707 262.399 65.9002 271.91C86.6889 303.287 119.314 326.455 155.633 335.72C170.179 339.379 175.189 339.948 193.843 339.866C209.704 339.866 212.579 339.62 221.78 337.672C262.373 329.217 296.723 306.455 319.158 273.289C326.306 262.722 328.114 258.982 327.374 255.728C326.716 252.72 319.898 246.705 309.705 240.042C286.202 224.682 260.321 215.172 227.121 209.806C219.232 208.587 178.229 207.449 170.832 208.341ZM213.15 224.928C246.511 228.018 276.343 237.77 299.598 253.215C303.706 255.978 307.404 258.662 307.649 259.149C307.98 259.636 306.172 263.05 303.541 266.79C271.085 313.612 212.575 334.181 155.712 318.896C126.624 311.01 99.8325 291.906 82.3288 266.626C79.8631 263.05 78.0552 259.636 78.3861 259.149C79.3708 257.443 93.5896 248.419 101.479 244.437C121.366 234.357 146.593 227.367 171.656 225.01C182.007 224.032 202.878 224.032 213.15 224.928Z" fill="#119FFF"/>
</svg>
