<svg width="78" height="76" viewBox="0 0 78 76" fill="none" xmlns="http://www.w3.org/2000/svg">
<g filter="url(#filter0_dd)">
<rect x="19" y="17" width="40" height="40" rx="10" fill="white"/>
</g>
<path d="M43.9688 30.1164V28.3047C43.9688 28.1477 43.7883 28.061 43.6664 28.157L33.1008 36.4094C33.011 36.4792 32.9384 36.5686 32.8884 36.6707C32.8385 36.7729 32.8125 36.8851 32.8125 36.9988C32.8125 37.1126 32.8385 37.2248 32.8884 37.3269C32.9384 37.4291 33.011 37.5185 33.1008 37.5883L43.6664 45.8406C43.7907 45.9367 43.9688 45.85 43.9688 45.693V43.8813C43.9688 43.7664 43.9149 43.6563 43.8258 43.586L35.3883 37L43.8258 30.4117C43.9149 30.3414 43.9688 30.2313 43.9688 30.1164Z" fill="black"/>
<defs>
<filter id="filter0_dd" x="0" y="0" width="78" height="76" filterUnits="userSpaceOnUse" color-interpolation-filters="sRGB">
<feFlood flood-opacity="0" result="BackgroundImageFix"/>
<feColorMatrix in="SourceAlpha" type="matrix" values="0 0 0 0 0 0 0 0 0 0 0 0 0 0 0 0 0 0 127 0"/>
<feOffset dx="4" dy="4"/>
<feGaussianBlur stdDeviation="7.5"/>
<feColorMatrix type="matrix" values="0 0 0 0 0 0 0 0 0 0 0 0 0 0 0 0 0 0 0.15 0"/>
<feBlend mode="normal" in2="BackgroundImageFix" result="effect1_dropShadow"/>
<feColorMatrix in="SourceAlpha" type="matrix" values="0 0 0 0 0 0 0 0 0 0 0 0 0 0 0 0 0 0 127 0"/>
<feOffset dx="-4" dy="-2"/>
<feGaussianBlur stdDeviation="7.5"/>
<feColorMatrix type="matrix" values="0 0 0 0 0 0 0 0 0 0 0 0 0 0 0 0 0 0 0.15 0"/>
<feBlend mode="normal" in2="effect1_dropShadow" result="effect2_dropShadow"/>
<feBlend mode="normal" in="SourceGraphic" in2="effect2_dropShadow" result="shape"/>
</filter>
</defs>
</svg>
