<svg width="41" height="39" viewBox="0 0 41 39" fill="none" xmlns="http://www.w3.org/2000/svg">
<rect width="41" height="39" rx="10" fill="white"/>
<path d="M16.625 16.9167H14.0417V19.5H16.625V16.9167ZM21.7917 16.9167H19.2083V19.5H21.7917V16.9167ZM26.9583 16.9167H24.375V19.5H26.9583V16.9167ZM29.5417 7.87502H28.25V5.29169H25.6667V7.87502H15.3333V5.29169H12.75V7.87502H11.4583C10.0246 7.87502 8.875 9.03752 8.875 10.4584V28.5417C8.875 29.2268 9.14717 29.8839 9.63164 30.3684C10.1161 30.8528 10.7732 31.125 11.4583 31.125H29.5417C30.2268 31.125 30.8839 30.8528 31.3684 30.3684C31.8528 29.8839 32.125 29.2268 32.125 28.5417V10.4584C32.125 9.77321 31.8528 9.11613 31.3684 8.63166C30.8839 8.14719 30.2268 7.87502 29.5417 7.87502ZM29.5417 28.5417H11.4583V14.3334H29.5417V28.5417Z" fill="url(#paint0_linear)" fill-opacity="0.94"/>
<defs>
<linearGradient id="paint0_linear" x1="20.5" y1="5.29169" x2="20.5" y2="31.125" gradientUnits="userSpaceOnUse">
<stop stop-color="#0299FF"/>
<stop offset="1" stop-color="#3777B1" stop-opacity="0.72"/>
</linearGradient>
</defs>
</svg>
