<svg width="14" height="13" viewBox="0 0 14 13" fill="none" xmlns="http://www.w3.org/2000/svg">
<path d="M7 0C3.13114 0 0 2.90715 0 6.5C0 10.0925 3.13078 13 7 13C10.8689 13 14 10.0928 14 6.5C14 2.90743 10.8692 0 7 0ZM7.34489 6.76934L5.43683 8.87584C5.27662 9.0527 4.9923 9.07546 4.80189 8.92672C4.61142 8.77795 4.58687 8.51399 4.74709 8.33713L6.54936 6.34741V1.61878C6.54936 1.38768 6.75113 1.20033 7 1.20033C7.24887 1.20033 7.45064 1.38768 7.45064 1.61878V6.5C7.45064 6.59853 7.41317 6.69394 7.34489 6.76934Z" fill="#2D2B43"/>
</svg>
