<svg width="24" height="23" viewBox="0 0 24 23" fill="none" xmlns="http://www.w3.org/2000/svg">
<path d="M12 0C13.5759 0 15.1363 0.297456 16.5922 0.875386C18.0481 1.45331 19.371 2.3004 20.4853 3.36827C21.5996 4.43615 22.4835 5.7039 23.0866 7.09914C23.6896 8.49438 24 9.9898 24 11.5C24 14.55 22.7357 17.4751 20.4853 19.6317C18.2348 21.7884 15.1826 23 12 23C10.4241 23 8.86371 22.7025 7.4078 22.1246C5.95189 21.5467 4.62902 20.6996 3.51472 19.6317C1.26428 17.4751 0 14.55 0 11.5C0 8.45001 1.26428 5.52494 3.51472 3.36827C5.76516 1.2116 8.8174 0 12 0ZM12 2.3C9.45392 2.3 7.01212 3.26928 5.21178 4.99462C3.41143 6.71995 2.4 9.06001 2.4 11.5C2.4 13.94 3.41143 16.2801 5.21178 18.0054C7.01212 19.7307 9.45392 20.7 12 20.7C14.5461 20.7 16.9879 19.7307 18.7882 18.0054C20.5886 16.2801 21.6 13.94 21.6 11.5C21.6 9.06001 20.5886 6.71995 18.7882 4.99462C16.9879 3.26928 14.5461 2.3 12 2.3ZM16.8 9.2V17.25C16.8 17.555 16.6736 17.8475 16.4485 18.0632C16.2235 18.2788 15.9183 18.4 15.6 18.4H8.4C8.08174 18.4 7.77652 18.2788 7.55147 18.0632C7.32643 17.8475 7.2 17.555 7.2 17.25V9.2H16.8ZM13.8 4.6L15 5.75H18V8.05H6V5.75H9L10.2 4.6H13.8Z" fill="#BA4444"/>
</svg>
