<svg width="41" height="39" viewBox="0 0 41 39" fill="none" xmlns="http://www.w3.org/2000/svg">
<rect y="0.688293" width="41" height="37.4805" rx="10" fill="white"/>
<path d="M30 8.0563H23.73C23.1 6.56989 21.45 5.49353 19.5 5.49353C17.55 5.49353 15.9 6.56989 15.27 8.0563H9C7.35 8.0563 6 9.20955 6 10.6191V28.5585C6 29.968 7.35 31.1212 9 31.1212H30C31.65 31.1212 33 29.968 33 28.5585V10.6191C33 9.20955 31.65 8.0563 30 8.0563ZM19.5 8.0563C20.325 8.0563 21 8.63292 21 9.33769C21 10.0424 20.325 10.6191 19.5 10.6191C18.675 10.6191 18 10.0424 18 9.33769C18 8.63292 18.675 8.0563 19.5 8.0563ZM12 13.1818H27V10.6191H30V28.5585H9V10.6191H12V13.1818ZM19.5 25.9957V23.4329H27V25.9957H19.5ZM19.5 18.3074V15.7446H27V18.3074H19.5ZM13.5 19.5888V15.7446H12V14.4632H15V19.5888H13.5ZM15.375 22.1515C15.99 22.1515 16.5 22.5872 16.5 23.1126C16.5 23.3689 16.38 23.6123 16.185 23.7789L13.68 25.9957H16.5V27.2771H12V26.0982L15 23.4329H12V22.1515H15.375Z" fill="url(#paint0_linear)" fill-opacity="0.94"/>
<defs>
<linearGradient id="paint0_linear" x1="19.5" y1="5.49353" x2="19.5" y2="31.1212" gradientUnits="userSpaceOnUse">
<stop stop-color="#0299FF"/>
<stop offset="1" stop-color="#3777B1" stop-opacity="0.72"/>
</linearGradient>
</defs>
</svg>
