<svg width="15" height="14" viewBox="0 0 15 14" fill="none" xmlns="http://www.w3.org/2000/svg">
<path d="M7.5 0C3.36462 0 0 3.14004 0 7C0 10.86 3.36462 14 7.5 14C11.6354 14 15 10.86 15 7C15 3.14004 11.6354 0 7.5 0ZM7.5 13.4615C3.68279 13.4615 0.576923 10.5627 0.576923 7C0.576923 3.43727 3.68279 0.538462 7.5 0.538462C11.3172 0.538462 14.4231 3.43727 14.4231 7C14.4231 10.5627 11.3172 13.4615 7.5 13.4615Z" fill="#D31010"/>
<path d="M11.1056 6.73077H7.78825V3.76923C7.78825 3.62035 7.65902 3.5 7.49979 3.5C7.34056 3.5 7.21133 3.62035 7.21133 3.76923V6.73077H3.89402C3.73479 6.73077 3.60556 6.85112 3.60556 7C3.60556 7.14888 3.73479 7.26923 3.89402 7.26923H7.21133V10.5C7.21133 10.6489 7.34056 10.7692 7.49979 10.7692C7.65902 10.7692 7.78825 10.6489 7.78825 10.5V7.26923H11.1056C11.2648 7.26923 11.394 7.14888 11.394 7C11.394 6.85112 11.2648 6.73077 11.1056 6.73077Z" fill="#D31010"/>
</svg>
