<svg width="24" height="24" viewBox="0 0 24 24" fill="none" xmlns="http://www.w3.org/2000/svg">
<path d="M8.625 8.5H4.125C3.85978 8.5 3.60543 8.39464 3.41789 8.20711C3.23036 8.01957 3.125 7.76522 3.125 7.5V3C3.125 2.73478 3.23036 2.48043 3.41789 2.29289C3.60543 2.10536 3.85978 2 4.125 2C4.39022 2 4.64457 2.10536 4.83211 2.29289C5.01964 2.48043 5.125 2.73478 5.125 3V6.5H8.625C8.89022 6.5 9.14457 6.60536 9.33211 6.79289C9.51964 6.98043 9.625 7.23478 9.625 7.5C9.625 7.76522 9.51964 8.01957 9.33211 8.20711C9.14457 8.39464 8.89022 8.5 8.625 8.5Z" fill="#FEA800"/>
<path d="M21 13C20.7348 13 20.4804 12.8946 20.2929 12.7071C20.1054 12.5196 20 12.2652 20 12C20.0008 10.2395 19.4204 8.52804 18.3491 7.1311C17.2777 5.73416 15.7753 4.72989 14.0748 4.27412C12.3744 3.81835 10.5711 3.93657 8.94468 4.61044C7.31829 5.28431 5.9598 6.47614 5.08 8.001C4.94712 8.23054 4.7285 8.3979 4.47224 8.46626C4.21597 8.53461 3.94304 8.49837 3.7135 8.3655C3.48395 8.23262 3.31659 8.014 3.24823 7.75774C3.17988 7.50147 3.21612 7.22854 3.349 6.99899C4.44925 5.09323 6.14768 3.60384 8.18081 2.76188C10.2139 1.91992 12.4681 1.77247 14.5936 2.34238C16.7191 2.9123 18.597 4.16774 19.9362 5.91392C21.2753 7.66011 22.0008 9.79943 22 12C22 12.2652 21.8946 12.5196 21.7071 12.7071C21.5196 12.8946 21.2652 13 21 13ZM19.875 22C19.6098 22 19.3554 21.8946 19.1679 21.7071C18.9804 21.5196 18.875 21.2652 18.875 21V17.5H15.375C15.1098 17.5 14.8554 17.3946 14.6679 17.2071C14.4804 17.0196 14.375 16.7652 14.375 16.5C14.375 16.2348 14.4804 15.9804 14.6679 15.7929C14.8554 15.6054 15.1098 15.5 15.375 15.5H19.875C20.1402 15.5 20.3946 15.6054 20.5821 15.7929C20.7696 15.9804 20.875 16.2348 20.875 16.5V21C20.875 21.2652 20.7696 21.5196 20.5821 21.7071C20.3946 21.8946 20.1402 22 19.875 22Z" fill="#FEA800"/>
<path d="M12 22C9.34881 21.9968 6.80712 20.9422 4.93244 19.0676C3.05776 17.1929 2.00318 14.6512 2 12C2 11.7348 2.10536 11.4804 2.29289 11.2929C2.48043 11.1054 2.73478 11 3 11C3.26522 11 3.51957 11.1054 3.70711 11.2929C3.89464 11.4804 4 11.7348 4 12C3.99924 13.7605 4.57956 15.472 5.65091 16.8689C6.72225 18.2658 8.22472 19.2701 9.92516 19.7259C11.6256 20.1816 13.4289 20.0634 15.0553 19.3896C16.6817 18.7157 18.0402 17.5239 18.92 15.999C18.9858 15.8853 19.0733 15.7858 19.1776 15.7059C19.2819 15.6261 19.4009 15.5676 19.5278 15.5337C19.6547 15.4999 19.787 15.4914 19.9172 15.5087C20.0473 15.5259 20.1728 15.5687 20.2865 15.6345C20.4002 15.7003 20.4997 15.7878 20.5796 15.8921C20.6594 15.9964 20.7179 16.1154 20.7518 16.2423C20.7856 16.3692 20.7941 16.5015 20.7768 16.6317C20.7596 16.7618 20.7168 16.8873 20.651 17.001C19.7715 18.5175 18.51 19.777 16.9921 20.6541C15.4743 21.5312 13.7531 21.9953 12 22Z" fill="#FEA800"/>
</svg>
