<svg width="24" height="22" viewBox="0 0 24 22" fill="none" xmlns="http://www.w3.org/2000/svg">
<path d="M12 0C5.37306 0 0 4.92531 0 11C0 17.0747 5.37306 22 12 22C18.6269 22 24 17.0747 24 11C24 4.92531 18.6269 0 12 0ZM12 20.6463C6.21061 20.6463 1.50122 16.3069 1.50122 11C1.50122 5.69306 6.21061 1.37388 12 1.37388C17.7894 1.37388 22.5012 5.69082 22.5012 11C22.5012 16.3069 17.7894 20.6463 12 20.6463ZM16.7902 6.9749L9.74939 13.4694L6.57796 10.5622C6.28408 10.2929 5.80898 10.2929 5.51755 10.5622C5.22367 10.8316 5.22367 11.2649 5.51755 11.5343L9.2302 14.9376C9.52408 15.2069 9.99673 15.2069 10.2906 14.9376C10.3249 14.9061 10.3567 14.8702 10.3837 14.8343L17.8506 7.94694C18.1445 7.67755 18.1445 7.24429 17.8506 6.9749C17.5567 6.70551 17.0816 6.70551 16.7902 6.9749Z" fill="#66DC52"/>
</svg>
