<svg width="34" height="31" viewBox="0 0 34 31" fill="none" xmlns="http://www.w3.org/2000/svg">
<g clip-path="url(#clip0)">
<path d="M17.145 19.5477C19.4354 19.5477 21.292 17.8735 21.292 15.8083C21.292 13.7432 19.4354 12.069 17.145 12.069C14.8547 12.069 12.998 13.7432 12.998 15.8083C12.998 17.8735 14.8547 19.5477 17.145 19.5477Z" stroke="#333333" stroke-width="1.5" stroke-linecap="round" stroke-linejoin="round"/>
<path d="M27.3744 19.5477C27.1904 19.9236 27.1355 20.3406 27.2168 20.745C27.2981 21.1493 27.5119 21.5224 27.8305 21.8162L27.9135 21.891C28.1705 22.1225 28.3745 22.3974 28.5136 22.7C28.6527 23.0027 28.7243 23.3271 28.7243 23.6547C28.7243 23.9823 28.6527 24.3067 28.5136 24.6093C28.3745 24.9119 28.1705 25.1869 27.9135 25.4184C27.6567 25.6502 27.3518 25.834 27.0162 25.9595C26.6806 26.0849 26.3208 26.1495 25.9575 26.1495C25.5942 26.1495 25.2344 26.0849 24.8988 25.9595C24.5632 25.834 24.2582 25.6502 24.0015 25.4184L23.9185 25.3436C23.5928 25.0562 23.179 24.8635 22.7306 24.7902C22.2821 24.7169 21.8196 24.7663 21.4027 24.9323C20.9938 25.0903 20.6452 25.3526 20.3996 25.687C20.1539 26.0214 20.0221 26.4133 20.0204 26.8144V27.0263C20.0204 27.6874 19.7291 28.3215 19.2106 28.789C18.6921 29.2565 17.9889 29.5192 17.2557 29.5192C16.5225 29.5192 15.8193 29.2565 15.3008 28.789C14.7823 28.3215 14.491 27.6874 14.491 27.0263V26.9141C14.4803 26.5015 14.3322 26.1014 14.066 25.7658C13.7997 25.4301 13.4277 25.1744 12.9981 25.032C12.5812 24.8661 12.1187 24.8166 11.6703 24.8899C11.2218 24.9632 10.8081 25.156 10.4823 25.4433L10.3993 25.5181C10.1426 25.7499 9.83766 25.9337 9.50203 26.0592C9.16641 26.1846 8.80665 26.2492 8.44333 26.2492C8.08001 26.2492 7.72025 26.1846 7.38463 26.0592C7.049 25.9337 6.74409 25.7499 6.48733 25.5181C6.23028 25.2866 6.02636 25.0116 5.88723 24.709C5.7481 24.4064 5.67649 24.082 5.67649 23.7544C5.67649 23.4268 5.7481 23.1024 5.88723 22.7998C6.02636 22.4971 6.23028 22.2222 6.48733 21.9907L6.57027 21.9159C6.88895 21.6221 7.10272 21.249 7.18403 20.8447C7.26534 20.4403 7.21045 20.0233 7.02644 19.6474C6.85121 19.2787 6.56025 18.9643 6.18939 18.7428C5.81852 18.5214 5.38393 18.4025 4.93912 18.4009H4.70412C3.97088 18.4009 3.26768 18.1383 2.74921 17.6708C2.23073 17.2033 1.93945 16.5692 1.93945 15.9081C1.93945 15.2469 2.23073 14.6128 2.74921 14.1453C3.26768 13.6778 3.97088 13.4152 4.70412 13.4152H4.82853C5.28607 13.4055 5.72982 13.272 6.10207 13.0319C6.47433 12.7918 6.75787 12.4563 6.91585 12.069C7.09986 11.6931 7.15475 11.2761 7.07344 10.8717C6.99214 10.4674 6.77836 10.0943 6.45968 9.80052L6.37674 9.72573C6.11969 9.49421 5.91577 9.21927 5.77664 8.91664C5.63751 8.61401 5.5659 8.28962 5.5659 7.96202C5.5659 7.63442 5.63751 7.31003 5.77664 7.0074C5.91577 6.70477 6.11969 6.42983 6.37674 6.19831C6.6335 5.96653 6.93842 5.78266 7.27404 5.65721C7.60967 5.53176 7.96942 5.46719 8.33274 5.46719C8.69606 5.46719 9.05582 5.53176 9.39144 5.65721C9.72707 5.78266 10.032 5.96653 10.2887 6.19831L10.3717 6.2731C10.6975 6.56045 11.1113 6.75321 11.5597 6.82652C12.0081 6.89984 12.4706 6.85034 12.8875 6.68442H12.9981C13.407 6.52642 13.7557 6.26407 14.0013 5.92966C14.2469 5.59526 14.3787 5.20339 14.3804 4.8023V4.59041C14.3804 3.92926 14.6717 3.29519 15.1902 2.82768C15.7087 2.36018 16.4119 2.09753 17.1451 2.09753C17.8784 2.09753 18.5816 2.36018 19.1 2.82768C19.6185 3.29519 19.9098 3.92926 19.9098 4.59041V4.70259C19.9116 5.10368 20.0434 5.49554 20.289 5.82995C20.5346 6.16436 20.8833 6.42671 21.2921 6.58471C21.709 6.75063 22.1715 6.80012 22.62 6.72681C23.0684 6.65349 23.4822 6.46073 23.808 6.17338L23.8909 6.0986C24.1477 5.86682 24.4526 5.68295 24.7882 5.5575C25.1238 5.43204 25.4836 5.36747 25.8469 5.36747C26.2102 5.36747 26.57 5.43204 26.9056 5.5575C27.2412 5.68295 27.5461 5.86682 27.8029 6.0986C28.0599 6.33012 28.2639 6.60505 28.403 6.90769C28.5421 7.21032 28.6137 7.5347 28.6137 7.86231C28.6137 8.18991 28.5421 8.5143 28.403 8.81693C28.2639 9.11956 28.0599 9.3945 27.8029 9.62602L27.72 9.7008C27.4013 9.99456 27.1875 10.3677 27.1062 10.772C27.0249 11.1763 27.0798 11.5934 27.2638 11.9693V12.069C27.439 12.4377 27.73 12.7521 28.1008 12.9736C28.4717 13.195 28.9063 13.3139 29.3511 13.3155H29.5861C30.3193 13.3155 31.0225 13.5781 31.541 14.0456C32.0595 14.5131 32.3508 15.1472 32.3508 15.8083C32.3508 16.4695 32.0595 17.1036 31.541 17.5711C31.0225 18.0386 30.3193 18.3012 29.5861 18.3012H29.4617C29.0169 18.3028 28.5823 18.4217 28.2114 18.6431C27.8406 18.8646 27.5496 19.179 27.3744 19.5477V19.5477Z" stroke="#333333" stroke-width="1.5" stroke-linecap="round" stroke-linejoin="round"/>
</g>
<defs>
<clipPath id="clip0">
<rect width="33.176" height="29.9145" fill="white" transform="translate(0.557129 0.851105)"/>
</clipPath>
</defs>
</svg>
