<svg width="20" height="28" viewBox="0 0 20 28" fill="none" xmlns="http://www.w3.org/2000/svg">
<path d="M7.53828 12.6276C7.53828 13.0676 7.88264 13.4242 8.30752 13.4242H15.1451C15.57 13.4242 15.9144 13.0676 15.9144 12.6276C15.9144 12.1876 15.57 11.8309 15.1451 11.8309H8.30752C7.88264 11.8309 7.53828 12.1876 7.53828 12.6276Z" fill="#119FFF"/>
<path d="M15.1451 16.1673H8.30752C7.88264 16.1673 7.53828 16.524 7.53828 16.964C7.53828 17.404 7.88264 17.7606 8.30752 17.7606H15.1451C15.57 17.7606 15.9144 17.404 15.9144 16.964C15.9144 16.524 15.57 16.1673 15.1451 16.1673Z" fill="#119FFF"/>
<path d="M15.1451 20.5027H8.30752C7.88264 20.5027 7.53828 20.8594 7.53828 21.2994C7.53828 21.7394 7.88264 22.096 8.30752 22.096H15.1451C15.57 22.096 15.9144 21.7394 15.9144 21.2994C15.9144 20.8594 15.57 20.5027 15.1451 20.5027Z" fill="#119FFF"/>
<path d="M5.65797 13.4596C6.10149 13.4596 6.46104 13.0872 6.46104 12.6279C6.46104 12.1686 6.10149 11.7962 5.65797 11.7962C5.21444 11.7962 4.85489 12.1686 4.85489 12.6279C4.85489 13.0872 5.21444 13.4596 5.65797 13.4596Z" fill="#119FFF"/>
<path d="M5.65797 17.7955C6.10149 17.7955 6.46104 17.4232 6.46104 16.9638C6.46104 16.5045 6.10149 16.1321 5.65797 16.1321C5.21444 16.1321 4.85489 16.5045 4.85489 16.9638C4.85489 17.4232 5.21444 17.7955 5.65797 17.7955Z" fill="#119FFF"/>
<path d="M5.65797 22.1309C6.10149 22.1309 6.46104 21.7586 6.46104 21.2992C6.46104 20.8399 6.10149 20.4675 5.65797 20.4675C5.21444 20.4675 4.85489 20.8399 4.85489 21.2992C4.85489 21.7586 5.21444 22.1309 5.65797 22.1309Z" fill="#119FFF"/>
<path d="M19.7747 6.68934L13.9648 0.672293C13.8204 0.522878 13.6248 0.438965 13.4209 0.438965H0.769231C0.344359 0.438965 0 0.795595 0 1.23561V26.6756C0 27.1156 0.344359 27.4723 0.769231 27.4723H19.2308C19.6556 27.4723 20 27.1156 20 26.6756V7.25265C20 7.04137 19.919 6.83875 19.7747 6.68934ZM14.0191 2.98185L17.5447 6.63304H14.0191V2.98185ZM18.4615 25.879H1.53846V2.03225H12.4806V7.42969C12.4806 7.8697 12.825 8.22633 13.2498 8.22633H18.4615V25.879Z" fill="#119FFF"/>
</svg>
