<svg width="14" height="20" viewBox="0 0 14 20" fill="none" xmlns="http://www.w3.org/2000/svg">
<path d="M13.16 2.22427V0.208989C13.16 0.034314 12.9471 -0.0621485 12.8034 0.0447423L0.340098 9.22432C0.234205 9.30197 0.14852 9.40141 0.0895797 9.51504C0.0306392 9.62868 0 9.7535 0 9.88C0 10.0065 0.0306392 10.1313 0.0895797 10.245C0.14852 10.3586 0.234205 10.458 0.340098 10.5357L12.8034 19.7153C12.9499 19.8221 13.16 19.7257 13.16 19.551V17.5357C13.16 17.408 13.0964 17.2854 12.9914 17.2072L3.03844 9.8813L12.9914 2.55277C13.0964 2.47455 13.16 2.35202 13.16 2.22427Z" fill="white"/>
</svg>
