<svg width="33" height="34" viewBox="0 0 33 34" fill="none" xmlns="http://www.w3.org/2000/svg">
<path d="M3 29.2574C3 29.9582 3.5625 30.5214 4.2625 30.5214H20.5C21.2 30.5214 21.7625 29.9582 21.7625 29.2574V28.0308H3V29.2574ZM12.375 12.9998C7.6875 12.9998 3 15.5154 3 20.5216H21.75C21.75 15.5154 17.0625 12.9998 12.375 12.9998ZM6.275 18.0185C7.6625 16.0786 10.6125 15.5029 12.375 15.5029C14.1375 15.5029 17.0875 16.0786 18.475 18.0185H6.275ZM3 23.0247H21.75V25.5278H3V23.0247ZM24.25 8.00617V3H21.75V8.00617H15.5L15.7875 10.5093H27.7375L25.9875 28.0308H24.25V30.5339H26.4C27.45 30.5339 28.3125 29.7204 28.4375 28.6942L30.5 8.00617H24.25Z" fill="#474343"/>
</svg>
