<svg width="45" height="44" viewBox="0 0 45 44" fill="none" xmlns="http://www.w3.org/2000/svg">
<rect width="45" height="44" rx="5" fill="white"/>
<rect x="0.5" y="0.5" width="44" height="43" rx="4.5" stroke="#E0E0E0" stroke-opacity="0.72"/>
<path d="M11.7581 14.6313C12.3823 15.0008 21.0214 21.0213 21.343 21.2086C21.6645 21.3985 22.0822 21.4896 22.5 21.4896C22.9201 21.4896 23.3355 21.3985 23.657 21.2086C23.9786 21.0213 32.6177 15.0008 33.2419 14.6313C33.8662 14.2645 34.4577 13 33.31 13H11.69C10.5447 13 11.1338 14.2645 11.7581 14.6313ZM33.5048 16.8975C32.796 17.3033 24.0912 23.1261 23.657 23.3759C23.2229 23.6256 22.9178 23.6569 22.5 23.6569C22.0799 23.6569 21.7771 23.6256 21.343 23.3759C20.9088 23.1287 12.204 17.3033 11.4952 16.8975C10.9953 16.6139 11 16.9469 11 17.2071C11 17.4646 11 28.6549 11 28.6549C11 29.2429 11.7135 30 12.2673 30H32.7327C33.2865 30 34 29.2429 34 28.6549C34 28.6549 34 17.4646 34 17.2071C34 16.9469 34.0047 16.6139 33.5048 16.8975Z" fill="#4D4D4D"/>
</svg>
