<svg width="239" height="132" viewBox="0 0 239 132" fill="none" xmlns="http://www.w3.org/2000/svg">
<g clip-path="url(#clip0)">
<path d="M32.1391 68.8006H24.4903C24.2214 68.8006 23.9634 68.9085 23.7733 69.1006C23.5831 69.2928 23.4762 69.5533 23.4762 69.825V73.2165C23.4762 73.4882 23.5831 73.7488 23.7733 73.9409C23.9634 74.133 24.2214 74.241 24.4903 74.241H25.7578V79.3226H30.8716V74.241H32.1391C32.408 74.241 32.666 74.133 32.8561 73.9409C33.0463 73.7488 33.1531 73.4882 33.1531 73.2165V69.825C33.1531 69.5533 33.0463 69.2928 32.8561 69.1006C32.666 68.9085 32.408 68.8006 32.1391 68.8006Z" fill="#FFC702"/>
<path d="M39.8001 99.8399C35.1158 92.9155 32.7211 84.671 32.959 76.2875C32.9633 76.0941 32.9011 75.9051 32.7831 75.7527C32.6651 75.6003 32.4985 75.4939 32.3117 75.4514V73.986H24.2336V75.4311H24.1222C24.0083 75.4312 23.8956 75.4551 23.7912 75.5012C23.6869 75.5473 23.593 75.6147 23.5155 75.6991C23.4381 75.7835 23.3786 75.8831 23.341 75.9917C23.3034 76.1004 23.2883 76.2157 23.2967 76.3305C23.9331 85.2923 21.7841 93.3291 16.8498 100.441C16.5658 100.85 16.4207 101.34 16.4363 101.839L17.3196 129.441C17.3409 130.057 17.5966 130.64 18.0336 131.07C18.4705 131.5 19.0549 131.742 19.6647 131.747H37.9362C38.5529 131.742 39.1433 131.494 39.5816 131.056C40.0199 130.617 40.2714 130.024 40.2826 129.401L40.623 102.601C40.6331 101.618 40.346 100.654 39.8001 99.8399Z" fill="#1B3458"/>
<path opacity="0.2" d="M30.5446 69.9057C30.5446 70.4919 30.3141 71.054 29.9038 71.4685C29.4935 71.883 28.937 72.1159 28.3568 72.1159C27.7765 72.1159 27.22 71.883 26.8097 71.4685C26.3994 71.054 26.1689 70.4919 26.1689 69.9057" fill="black"/>
<path d="M36.9077 109.008H34.6952C34.4839 107.624 33.7891 106.361 32.7365 105.449C31.6838 104.537 30.3427 104.036 28.9558 104.036C27.569 104.036 26.2279 104.537 25.1752 105.449C24.1225 106.361 23.4277 107.624 23.2165 109.008H21.0038C20.7684 109.008 20.5358 109.06 20.3219 109.159C20.108 109.258 19.9179 109.403 19.7646 109.584C19.6113 109.764 19.4984 109.976 19.4338 110.205C19.3691 110.433 19.3542 110.674 19.39 110.909L21.7933 126.69H35.5934L38.5126 110.962C38.5568 110.724 38.5485 110.478 38.4883 110.244C38.4281 110.009 38.3174 109.791 38.1642 109.604C38.011 109.418 37.8189 109.268 37.6018 109.165C37.3846 109.062 37.1476 109.008 36.9077 109.008Z" fill="#FFF5D1"/>
<path d="M222.838 83.6428L222.308 105.072L221.65 131.644H199.278L198.508 100.511L198.09 83.6428H222.838Z" fill="#E6E6E6"/>
<path d="M211.949 72.2425H208.781V114.644H211.949V72.2425Z" fill="#636060"/>
<path d="M221.254 99.7893L220.655 130.246H200.263L199.561 94.5625C201.398 94.0413 203.322 93.9078 205.213 94.1705C207.103 94.4331 208.92 95.0863 210.549 96.0893C213.957 98.125 217.784 99.2207 221.254 99.7893Z" fill="#EB5757"/>
<path d="M205.311 103.218H202.405V106.154H205.311V103.218Z" fill="#E6E6E6"/>
<path d="M207.291 97.2178H204.385V100.154H207.291V97.2178Z" fill="#E6E6E6"/>
<path d="M213.533 101.372L211.198 99.6224L209.467 101.981L211.801 103.73L213.533 101.372Z" fill="#E6E6E6"/>
<path d="M218.785 106.574L216.45 104.825L214.719 107.184L217.053 108.933L218.785 106.574Z" fill="#E6E6E6"/>
<path d="M209.875 109.575L207.541 107.825L205.809 110.184L208.144 111.933L209.875 109.575Z" fill="#E6E6E6"/>
<path d="M216.701 96.0432C217.029 96.0432 217.295 95.7746 217.295 95.4432C217.295 95.1118 217.029 94.8432 216.701 94.8432C216.373 94.8432 216.107 95.1118 216.107 95.4432C216.107 95.7746 216.373 96.0432 216.701 96.0432Z" fill="#3F3D56"/>
<path d="M204.624 92.0431C204.952 92.0431 205.218 91.7745 205.218 91.4431C205.218 91.1117 204.952 90.843 204.624 90.843C204.296 90.843 204.03 91.1117 204.03 91.4431C204.03 91.7745 204.296 92.0431 204.624 92.0431Z" fill="#3F3D56"/>
<path d="M214.721 87.843C215.049 87.843 215.315 87.5743 215.315 87.243C215.315 86.9116 215.049 86.6429 214.721 86.6429C214.393 86.6429 214.127 86.9116 214.127 87.243C214.127 87.5743 214.393 87.843 214.721 87.843Z" fill="#3F3D56"/>
<path d="M119.637 131.461C155.572 131.461 184.703 102.033 184.703 65.7307C184.703 29.4286 155.572 0 119.637 0C83.7014 0 54.5701 29.4286 54.5701 65.7307C54.5701 102.033 83.7014 131.461 119.637 131.461Z" fill="white"/>
<path opacity="0.2" d="M119.637 113.708C108.649 113.708 98.0016 109.859 89.5082 102.817C81.0148 95.7757 75.201 85.9769 73.0575 75.0905C70.914 64.2042 72.5734 52.9037 77.7529 43.1147C82.9324 33.3257 91.3116 25.6538 101.463 21.4062C111.614 17.1586 122.909 16.598 133.423 19.8201C143.938 23.0422 153.021 29.8476 159.125 39.0766C165.23 48.3056 167.977 59.3874 166.9 70.4336C165.823 81.4798 160.988 91.807 153.219 99.6557C148.819 104.125 143.586 107.668 137.821 110.08C132.057 112.492 125.876 113.725 119.637 113.708ZM119.637 20.7126C95.0644 20.7126 75.0734 40.9076 75.0734 65.7307C75.0734 90.5537 95.0644 110.749 119.637 110.749C144.209 110.749 164.2 90.5537 164.2 65.7307C164.2 40.9076 144.209 20.7126 119.637 20.7126Z" fill="black"/>
<path d="M119.637 112.228C145.057 112.228 165.665 91.4106 165.665 65.7307C165.665 40.0508 145.057 19.2331 119.637 19.2331C94.2163 19.2331 73.6089 40.0508 73.6089 65.7307C73.6089 91.4106 94.2163 112.228 119.637 112.228Z" fill="#3F3D56"/>
<path d="M85.4068 47.1383C85.0577 46.4476 84.8469 45.6942 84.7862 44.9212C84.7255 44.1481 84.8163 43.3706 85.0533 42.633C85.2903 41.8954 85.6688 41.2122 86.1674 40.6225C86.6659 40.0329 87.2746 39.5482 87.9586 39.1963C88.6426 38.8444 89.3886 38.6322 90.1539 38.5717C90.9192 38.5112 91.6888 38.6037 92.4187 38.8439C93.1486 39.0841 93.8245 39.4673 94.4077 39.9715C94.9909 40.4757 95.47 41.0911 95.8176 41.7825L108.822 67.5791C109.171 68.2697 109.382 69.0231 109.442 69.7961C109.503 70.5692 109.412 71.3467 109.175 72.0843C108.938 72.8219 108.56 73.5051 108.061 74.0948C107.563 74.6845 106.954 75.1691 106.27 75.521C105.586 75.8729 104.84 76.0852 104.075 76.1456C103.309 76.2061 102.54 76.1136 101.81 75.8734C101.08 75.6332 100.404 75.2501 99.8208 74.7458C99.2376 74.2416 98.7585 73.6262 98.4109 72.9348L85.4068 47.1383Z" fill="#FF6584"/>
<path opacity="0.2" d="M86.8573 50.0155L86.2571 48.8249C89.2524 46.4738 92.7698 44.7447 96.6679 43.4692L97.2681 44.6598C93.0491 45.5473 89.4598 47.1898 86.8573 50.0155Z" fill="black"/>
<path opacity="0.2" d="M89.6582 55.5717L89.058 54.3811C92.0533 52.03 95.5707 50.3009 99.4688 49.0254L100.069 50.216C95.85 51.1035 92.2607 52.746 89.6582 55.5717Z" fill="black"/>
<path opacity="0.2" d="M92.459 61.1279L91.8588 59.9373C94.8542 57.5862 98.3715 55.857 102.27 54.5815L102.87 55.7722C98.6509 56.6597 95.0615 58.3022 92.459 61.1279Z" fill="black"/>
<path opacity="0.2" d="M95.2599 66.6841L94.6597 65.4935C97.6551 63.1423 101.172 61.4132 105.071 60.1377L105.671 61.3283C101.452 62.2159 97.8624 63.8583 95.2599 66.6841Z" fill="black"/>
<path opacity="0.2" d="M98.0608 72.2403L97.4606 71.0497C100.456 68.6985 103.973 66.9694 107.871 65.6939L108.472 66.8845C104.253 67.772 100.663 69.4145 98.0608 72.2403Z" fill="black"/>
<path d="M75.6508 56.7955C75.3018 56.1049 75.091 55.3515 75.0304 54.5785C74.9698 53.8055 75.0606 53.0281 75.2976 52.2905C75.5346 51.553 75.9132 50.8699 76.4117 50.2803C76.9102 49.6906 77.5188 49.206 78.2028 48.8541C78.8868 48.5023 79.6328 48.29 80.398 48.2295C81.1633 48.169 81.9328 48.2615 82.6627 48.5016C83.3925 48.7418 84.0684 49.1249 84.6516 49.629C85.2348 50.1331 85.7139 50.7485 86.0616 51.4398L99.0656 77.2363C99.7667 78.6308 99.8912 80.2493 99.4117 81.7364C98.9322 83.2235 97.8879 84.4575 96.5083 85.1672C95.1287 85.8769 93.5266 86.0044 92.054 85.5215C90.5814 85.0387 89.3588 83.985 88.6548 82.5921L75.6508 56.7955Z" fill="#FF6584"/>
<path opacity="0.2" d="M77.1012 59.6728L76.5011 58.4822C79.4964 56.1311 83.0138 54.402 86.9119 53.1265L87.5121 54.3171C83.2931 55.2046 79.7038 56.8471 77.1012 59.6728Z" fill="black"/>
<path opacity="0.2" d="M79.9021 65.229L79.3019 64.0384C82.2973 61.6873 85.8146 59.9581 89.7127 58.6826L90.3129 59.8732C86.094 60.7608 82.5046 62.4032 79.9021 65.229Z" fill="black"/>
<path opacity="0.2" d="M82.703 70.7852L82.1028 69.5946C85.0981 67.2435 88.6155 65.5143 92.5136 64.2388L93.1138 65.4294C88.8948 66.317 85.3055 67.9594 82.703 70.7852Z" fill="black"/>
<path opacity="0.2" d="M85.5038 76.3413L84.9037 75.1507C87.899 72.7996 91.4164 71.0705 95.3145 69.795L95.9147 70.9856C91.6957 71.8731 88.1064 73.5156 85.5038 76.3413Z" fill="black"/>
<path opacity="0.2" d="M88.3047 81.8975L87.7045 80.7069C90.6999 78.3558 94.2173 76.6267 98.1154 75.3512L98.7156 76.5418C94.4966 77.4293 90.9073 79.0718 88.3047 81.8975Z" fill="black"/>
<path d="M150.392 67.2102L150.433 67.2102C151.833 67.2221 153.205 66.8072 154.369 66.0197C155.533 65.2323 156.434 64.1087 156.957 62.7957C158.031 60.0533 158.572 57.1276 158.551 54.1784C158.478 41.6957 148.425 31.4551 136.069 31.2825C130.807 31.2081 125.682 32.9741 121.561 36.2812C117.441 39.5884 114.58 44.2331 113.462 49.428C112.344 54.623 113.039 60.0485 115.429 64.785C117.819 69.5214 121.757 73.2772 126.575 75.4158C127.848 75.9853 129.262 76.1528 130.631 75.8963C132 75.6399 133.26 74.9714 134.247 73.9787C136.363 71.83 138.879 70.1257 141.65 68.9641C144.421 67.8024 147.392 67.2063 150.392 67.2102Z" fill="#E6E6E6"/>
<path d="M138.676 60.2355C142.835 60.2355 146.207 56.829 146.207 52.6268C146.207 48.4246 142.835 45.0181 138.676 45.0181C134.516 45.0181 131.144 48.4246 131.144 52.6268C131.144 56.829 134.516 60.2355 138.676 60.2355Z" fill="#F9A825"/>
<path d="M122.306 51.7712C122.796 51.7712 123.193 51.3699 123.193 50.8749C123.193 50.3799 122.796 49.9785 122.306 49.9785C121.816 49.9785 121.419 50.3799 121.419 50.8749C121.419 51.3699 121.816 51.7712 122.306 51.7712Z" fill="#3F3D56"/>
<path d="M93.0157 52.6166C93.5057 52.6166 93.903 52.2153 93.903 51.7203C93.903 51.2252 93.5057 50.8239 93.0157 50.8239C92.5257 50.8239 92.1284 51.2252 92.1284 51.7203C92.1284 52.2153 92.5257 52.6166 93.0157 52.6166Z" fill="#3F3D56"/>
<path d="M127.035 42.4819C127.525 42.4819 127.922 42.0806 127.922 41.5856C127.922 41.0905 127.525 40.6892 127.035 40.6892C126.545 40.6892 126.148 41.0905 126.148 41.5856C126.148 42.0806 126.545 42.4819 127.035 42.4819Z" fill="#3F3D56"/>
<path d="M127.01 68.3179C127.5 68.3179 127.897 67.9166 127.897 67.4215C127.897 66.9265 127.5 66.5252 127.01 66.5252C126.52 66.5252 126.122 66.9265 126.122 67.4215C126.122 67.9166 126.52 68.3179 127.01 68.3179Z" fill="#3F3D56"/>
<path d="M144.584 40.6306C145.074 40.6306 145.471 40.2293 145.471 39.7343C145.471 39.2393 145.074 38.838 144.584 38.838C144.094 38.838 143.697 39.2393 143.697 39.7343C143.697 40.2293 144.094 40.6306 144.584 40.6306Z" fill="#3F3D56"/>
<path d="M87.2584 65.1476C87.7485 65.1476 88.1457 64.7463 88.1457 64.2512C88.1457 63.7562 87.7485 63.3549 87.2584 63.3549C86.7684 63.3549 86.3711 63.7562 86.3711 64.2512C86.3711 64.7463 86.7684 65.1476 87.2584 65.1476Z" fill="#3F3D56"/>
<path d="M93.7442 78.0401C94.2342 78.0401 94.6315 77.6388 94.6315 77.1437C94.6315 76.6487 94.2342 76.2474 93.7442 76.2474C93.2541 76.2474 92.8569 76.6487 92.8569 77.1437C92.8569 77.6388 93.2541 78.0401 93.7442 78.0401Z" fill="#3F3D56"/>
<path d="M134.491 82.2162C136.34 82.2162 137.839 80.7022 137.839 78.8346C137.839 76.9669 136.34 75.4529 134.491 75.4529C132.642 75.4529 131.144 76.9669 131.144 78.8346C131.144 80.7022 132.642 82.2162 134.491 82.2162Z" fill="#FF6584"/>
<path opacity="0.2" d="M137.002 79.0459C137.002 79.7186 136.737 80.3637 136.266 80.8393C135.796 81.3149 135.157 81.5822 134.491 81.5822C133.825 81.5822 133.187 81.3149 132.716 80.8393C132.245 80.3637 131.981 79.7186 131.981 79.0459" fill="black"/>
<path opacity="0.2" d="M131.981 78.6232C131.981 77.9506 132.245 77.3055 132.716 76.8298C133.187 76.3542 133.825 76.087 134.491 76.087C135.157 76.087 135.796 76.3542 136.266 76.8298C136.737 77.3055 137.002 77.9506 137.002 78.6232" fill="black"/>
<path d="M133.236 77.9892C133.351 77.9892 133.445 77.8472 133.445 77.6721C133.445 77.497 133.351 77.3551 133.236 77.3551C133.12 77.3551 133.027 77.497 133.027 77.6721C133.027 77.8472 133.12 77.9892 133.236 77.9892Z" fill="#FF6584"/>
<path d="M134.491 77.5664C134.607 77.5664 134.7 77.4245 134.7 77.2494C134.7 77.0743 134.607 76.9324 134.491 76.9324C134.376 76.9324 134.282 77.0743 134.282 77.2494C134.282 77.4245 134.376 77.5664 134.491 77.5664Z" fill="#FF6584"/>
<path d="M134.491 80.314C134.607 80.314 134.7 80.1721 134.7 79.997C134.7 79.8219 134.607 79.6799 134.491 79.6799C134.376 79.6799 134.282 79.8219 134.282 79.997C134.282 80.1721 134.376 80.314 134.491 80.314Z" fill="#FF6584"/>
<path d="M135.747 78.6232C135.862 78.6232 135.956 78.4813 135.956 78.3062C135.956 78.1311 135.862 77.9891 135.747 77.9891C135.631 77.9891 135.537 78.1311 135.537 78.3062C135.537 78.4813 135.631 78.6232 135.747 78.6232Z" fill="#FF6584"/>
<path d="M135.537 80.9481C135.653 80.9481 135.746 80.8062 135.746 80.6311C135.746 80.456 135.653 80.314 135.537 80.314C135.422 80.314 135.328 80.456 135.328 80.6311C135.328 80.8062 135.422 80.9481 135.537 80.9481Z" fill="#FF6584"/>
<path d="M133.027 79.8913C133.142 79.8913 133.236 79.7494 133.236 79.5743C133.236 79.3992 133.142 79.2573 133.027 79.2573C132.911 79.2573 132.817 79.3992 132.817 79.5743C132.817 79.7494 132.911 79.8913 133.027 79.8913Z" fill="#FF6584"/>
<path d="M141.186 73.128C143.035 73.128 144.534 71.614 144.534 69.7464C144.534 67.8788 143.035 66.3647 141.186 66.3647C139.337 66.3647 137.839 67.8788 137.839 69.7464C137.839 71.614 139.337 73.128 141.186 73.128Z" fill="#FF6584"/>
<path opacity="0.2" d="M143.697 69.9578C143.697 70.6304 143.432 71.2755 142.961 71.7511C142.491 72.2268 141.852 72.494 141.186 72.494C140.52 72.494 139.882 72.2268 139.411 71.7511C138.94 71.2755 138.676 70.6304 138.676 69.9578" fill="black"/>
<path opacity="0.2" d="M138.676 69.535C138.676 68.8624 138.94 68.2173 139.411 67.7417C139.882 67.266 140.52 66.9988 141.186 66.9988C141.852 66.9988 142.491 67.266 142.961 67.7417C143.432 68.2173 143.697 68.8624 143.697 69.535" fill="black"/>
<path d="M139.931 68.901C140.046 68.901 140.14 68.7591 140.14 68.584C140.14 68.4089 140.046 68.2669 139.931 68.2669C139.815 68.2669 139.722 68.4089 139.722 68.584C139.722 68.7591 139.815 68.901 139.931 68.901Z" fill="#FF6584"/>
<path d="M141.186 68.4783C141.302 68.4783 141.395 68.3364 141.395 68.1613C141.395 67.9862 141.302 67.8442 141.186 67.8442C141.071 67.8442 140.977 67.9862 140.977 68.1613C140.977 68.3364 141.071 68.4783 141.186 68.4783Z" fill="#FF6584"/>
<path d="M141.186 71.2259C141.302 71.2259 141.395 71.0839 141.395 70.9088C141.395 70.7337 141.302 70.5918 141.186 70.5918C141.071 70.5918 140.977 70.7337 140.977 70.9088C140.977 71.0839 141.071 71.2259 141.186 71.2259Z" fill="#FF6584"/>
<path d="M142.441 69.535C142.557 69.535 142.651 69.3931 142.651 69.218C142.651 69.0429 142.557 68.901 142.441 68.901C142.326 68.901 142.232 69.0429 142.232 69.218C142.232 69.3931 142.326 69.535 142.441 69.535Z" fill="#FF6584"/>
<path d="M142.232 71.8599C142.348 71.8599 142.441 71.718 142.441 71.5429C142.441 71.3678 142.348 71.2259 142.232 71.2259C142.117 71.2259 142.023 71.3678 142.023 71.5429C142.023 71.718 142.117 71.8599 142.232 71.8599Z" fill="#FF6584"/>
<path d="M139.722 70.8032C139.837 70.8032 139.931 70.6612 139.931 70.4861C139.931 70.311 139.837 70.1691 139.722 70.1691C139.606 70.1691 139.512 70.311 139.512 70.4861C139.512 70.6612 139.606 70.8032 139.722 70.8032Z" fill="#FF6584"/>
<path d="M147.881 77.7778C149.73 77.7778 151.229 76.2638 151.229 74.3962C151.229 72.5286 149.73 71.0145 147.881 71.0145C146.032 71.0145 144.534 72.5286 144.534 74.3962C144.534 76.2638 146.032 77.7778 147.881 77.7778Z" fill="#636060"/>
<path opacity="0.2" d="M150.392 74.6075C150.392 75.2802 150.127 75.9253 149.656 76.4009C149.186 76.8766 148.547 77.1438 147.881 77.1438C147.215 77.1438 146.577 76.8766 146.106 76.4009C145.635 75.9253 145.371 75.2802 145.371 74.6075" fill="black"/>
<path opacity="0.2" d="M145.371 74.1848C145.371 73.5121 145.635 72.867 146.106 72.3914C146.577 71.9158 147.215 71.6486 147.881 71.6486C148.547 71.6486 149.186 71.9158 149.656 72.3914C150.127 72.867 150.392 73.5121 150.392 74.1848" fill="black"/>
<path d="M146.626 73.5508C146.741 73.5508 146.835 73.4088 146.835 73.2337C146.835 73.0586 146.741 72.9167 146.626 72.9167C146.51 72.9167 146.417 73.0586 146.417 73.2337C146.417 73.4088 146.51 73.5508 146.626 73.5508Z" fill="#636060"/>
<path d="M147.881 73.1281C147.997 73.1281 148.09 72.9861 148.09 72.811C148.09 72.636 147.997 72.494 147.881 72.494C147.766 72.494 147.672 72.636 147.672 72.811C147.672 72.9861 147.766 73.1281 147.881 73.1281Z" fill="#636060"/>
<path d="M147.881 75.8756C147.997 75.8756 148.09 75.7337 148.09 75.5586C148.09 75.3835 147.997 75.2416 147.881 75.2416C147.766 75.2416 147.672 75.3835 147.672 75.5586C147.672 75.7337 147.766 75.8756 147.881 75.8756Z" fill="#636060"/>
<path d="M149.136 74.1848C149.252 74.1848 149.346 74.0429 149.346 73.8678C149.346 73.6927 149.252 73.5508 149.136 73.5508C149.021 73.5508 148.927 73.6927 148.927 73.8678C148.927 74.0429 149.021 74.1848 149.136 74.1848Z" fill="#636060"/>
<path d="M148.927 76.5097C149.043 76.5097 149.136 76.3678 149.136 76.1927C149.136 76.0176 149.043 75.8756 148.927 75.8756C148.812 75.8756 148.718 76.0176 148.718 76.1927C148.718 76.3678 148.812 76.5097 148.927 76.5097Z" fill="#636060"/>
<path d="M146.417 75.4529C146.532 75.4529 146.626 75.311 146.626 75.1359C146.626 74.9608 146.532 74.8188 146.417 74.8188C146.301 74.8188 146.207 74.9608 146.207 75.1359C146.207 75.311 146.301 75.4529 146.417 75.4529Z" fill="#636060"/>
<path d="M131.144 78.2005C132.992 78.2005 134.491 76.6865 134.491 74.8188C134.491 72.9512 132.992 71.4372 131.144 71.4372C129.295 71.4372 127.796 72.9512 127.796 74.8188C127.796 76.6865 129.295 78.2005 131.144 78.2005Z" fill="#636060"/>
<path opacity="0.2" d="M133.654 75.0302C133.654 75.7029 133.39 76.348 132.919 76.8236C132.448 77.2992 131.81 77.5665 131.144 77.5665C130.478 77.5665 129.839 77.2992 129.368 76.8236C128.898 76.348 128.633 75.7029 128.633 75.0302" fill="black"/>
<path opacity="0.2" d="M128.633 74.6075C128.633 73.9349 128.898 73.2898 129.368 72.8141C129.839 72.3385 130.478 72.0713 131.144 72.0713C131.81 72.0713 132.448 72.3385 132.919 72.8141C133.39 73.2898 133.654 73.9349 133.654 74.6075" fill="black"/>
<path d="M129.888 73.9734C130.004 73.9734 130.098 73.8315 130.098 73.6564C130.098 73.4813 130.004 73.3394 129.888 73.3394C129.773 73.3394 129.679 73.4813 129.679 73.6564C129.679 73.8315 129.773 73.9734 129.888 73.9734Z" fill="#636060"/>
<path d="M131.144 73.5508C131.259 73.5508 131.353 73.4088 131.353 73.2337C131.353 73.0586 131.259 72.9167 131.144 72.9167C131.028 72.9167 130.934 73.0586 130.934 73.2337C130.934 73.4088 131.028 73.5508 131.144 73.5508Z" fill="#636060"/>
<path d="M131.144 76.2983C131.259 76.2983 131.353 76.1564 131.353 75.9813C131.353 75.8062 131.259 75.6642 131.144 75.6642C131.028 75.6642 130.934 75.8062 130.934 75.9813C130.934 76.1564 131.028 76.2983 131.144 76.2983Z" fill="#636060"/>
<path d="M132.399 74.6075C132.515 74.6075 132.608 74.4656 132.608 74.2905C132.608 74.1154 132.515 73.9734 132.399 73.9734C132.283 73.9734 132.19 74.1154 132.19 74.2905C132.19 74.4656 132.283 74.6075 132.399 74.6075Z" fill="#636060"/>
<path d="M132.19 76.9324C132.305 76.9324 132.399 76.7904 132.399 76.6153C132.399 76.4402 132.305 76.2983 132.19 76.2983C132.074 76.2983 131.981 76.4402 131.981 76.6153C131.981 76.7904 132.074 76.9324 132.19 76.9324Z" fill="#636060"/>
<path d="M129.679 75.8756C129.795 75.8756 129.888 75.7337 129.888 75.5586C129.888 75.3835 129.795 75.2416 129.679 75.2416C129.564 75.2416 129.47 75.3835 129.47 75.5586C129.47 75.7337 129.564 75.8756 129.679 75.8756Z" fill="#636060"/>
<path d="M138.676 79.68C140.524 79.68 142.023 78.166 142.023 76.2983C142.023 74.4307 140.524 72.9167 138.676 72.9167C136.827 72.9167 135.328 74.4307 135.328 76.2983C135.328 78.166 136.827 79.68 138.676 79.68Z" fill="#636060"/>
<path opacity="0.2" d="M141.186 76.5097C141.186 76.8427 141.121 77.1725 140.995 77.4802C140.869 77.788 140.684 78.0675 140.451 78.3031C140.218 78.5386 139.941 78.7254 139.636 78.8528C139.332 78.9803 139.005 79.0459 138.676 79.0459C138.346 79.0459 138.019 78.9803 137.715 78.8528C137.41 78.7254 137.133 78.5386 136.9 78.3031C136.667 78.0675 136.482 77.788 136.356 77.4802C136.23 77.1725 136.165 76.8427 136.165 76.5097" fill="black"/>
<path opacity="0.2" d="M136.165 76.087C136.165 75.7539 136.23 75.4241 136.356 75.1164C136.482 74.8087 136.667 74.5291 136.9 74.2936C137.133 74.0581 137.41 73.8713 137.715 73.7438C138.019 73.6164 138.346 73.5508 138.676 73.5508C139.005 73.5508 139.332 73.6164 139.636 73.7438C139.941 73.8713 140.218 74.0581 140.451 74.2936C140.684 74.5291 140.869 74.8087 140.995 75.1164C141.121 75.4241 141.186 75.7539 141.186 76.087" fill="black"/>
<path d="M137.42 75.4529C137.536 75.4529 137.629 75.311 137.629 75.1359C137.629 74.9608 137.536 74.8188 137.42 74.8188C137.305 74.8188 137.211 74.9608 137.211 75.1359C137.211 75.311 137.305 75.4529 137.42 75.4529Z" fill="#636060"/>
<path d="M138.676 75.0302C138.791 75.0302 138.885 74.8883 138.885 74.7132C138.885 74.5381 138.791 74.3961 138.676 74.3961C138.56 74.3961 138.466 74.5381 138.466 74.7132C138.466 74.8883 138.56 75.0302 138.676 75.0302Z" fill="#636060"/>
<path d="M138.676 77.7778C138.791 77.7778 138.885 77.6358 138.885 77.4608C138.885 77.2857 138.791 77.1437 138.676 77.1437C138.56 77.1437 138.466 77.2857 138.466 77.4608C138.466 77.6358 138.56 77.7778 138.676 77.7778Z" fill="#636060"/>
<path d="M139.931 76.087C140.046 76.087 140.14 75.945 140.14 75.77C140.14 75.5949 140.046 75.4529 139.931 75.4529C139.815 75.4529 139.722 75.5949 139.722 75.77C139.722 75.945 139.815 76.087 139.931 76.087Z" fill="#636060"/>
<path d="M139.722 78.4119C139.837 78.4119 139.931 78.2699 139.931 78.0948C139.931 77.9198 139.837 77.7778 139.722 77.7778C139.606 77.7778 139.512 77.9198 139.512 78.0948C139.512 78.2699 139.606 78.4119 139.722 78.4119Z" fill="#636060"/>
<path d="M137.211 77.3551C137.327 77.3551 137.42 77.2132 137.42 77.0381C137.42 76.863 137.327 76.721 137.211 76.721C137.095 76.721 137.002 76.863 137.002 77.0381C137.002 77.2132 137.095 77.3551 137.211 77.3551Z" fill="#636060"/>
<path d="M143.906 83.273C145.755 83.273 147.253 81.759 147.253 79.8913C147.253 78.0237 145.755 76.5097 143.906 76.5097C142.057 76.5097 140.559 78.0237 140.559 79.8913C140.559 81.759 142.057 83.273 143.906 83.273Z" fill="#FF6584"/>
<path opacity="0.2" d="M146.417 80.1027C146.417 80.7753 146.152 81.4204 145.681 81.8961C145.21 82.3717 144.572 82.6389 143.906 82.6389C143.24 82.6389 142.602 82.3717 142.131 81.8961C141.66 81.4204 141.395 80.7753 141.395 80.1027" fill="black"/>
<path opacity="0.2" d="M141.395 79.68C141.395 79.0073 141.66 78.3622 142.131 77.8866C142.602 77.411 143.24 77.1438 143.906 77.1438C144.572 77.1438 145.21 77.411 145.681 77.8866C146.152 78.3622 146.417 79.0073 146.417 79.68" fill="black"/>
<path d="M142.651 79.0459C142.766 79.0459 142.86 78.904 142.86 78.7289C142.86 78.5538 142.766 78.4118 142.651 78.4118C142.535 78.4118 142.441 78.5538 142.441 78.7289C142.441 78.904 142.535 79.0459 142.651 79.0459Z" fill="#FF6584"/>
<path d="M143.906 78.6232C144.022 78.6232 144.115 78.4813 144.115 78.3062C144.115 78.1311 144.022 77.9891 143.906 77.9891C143.79 77.9891 143.697 78.1311 143.697 78.3062C143.697 78.4813 143.79 78.6232 143.906 78.6232Z" fill="#FF6584"/>
<path d="M143.906 81.3708C144.022 81.3708 144.115 81.2289 144.115 81.0538C144.115 80.8787 144.022 80.7368 143.906 80.7368C143.79 80.7368 143.697 80.8787 143.697 81.0538C143.697 81.2289 143.79 81.3708 143.906 81.3708Z" fill="#FF6584"/>
<path d="M145.161 79.6799C145.277 79.6799 145.371 79.538 145.371 79.3629C145.371 79.1878 145.277 79.0459 145.161 79.0459C145.046 79.0459 144.952 79.1878 144.952 79.3629C144.952 79.538 145.046 79.6799 145.161 79.6799Z" fill="#FF6584"/>
<path d="M144.952 82.0049C145.068 82.0049 145.161 81.8629 145.161 81.6878C145.161 81.5127 145.068 81.3708 144.952 81.3708C144.837 81.3708 144.743 81.5127 144.743 81.6878C144.743 81.8629 144.837 82.0049 144.952 82.0049Z" fill="#FF6584"/>
<path d="M142.441 80.9481C142.557 80.9481 142.651 80.8062 142.651 80.6311C142.651 80.456 142.557 80.314 142.441 80.314C142.326 80.314 142.232 80.456 142.232 80.6311C142.232 80.8062 142.326 80.9481 142.441 80.9481Z" fill="#FF6584"/>
<path d="M100.858 67.8951C101.348 67.8951 101.745 67.4938 101.745 66.9988C101.745 66.5038 101.348 66.1025 100.858 66.1025C100.368 66.1025 99.9703 66.5038 99.9703 66.9988C99.9703 67.4938 100.368 67.8951 100.858 67.8951Z" fill="#3F3D56"/>
<path d="M124.976 99.5338L103.666 93.5639L104.483 90.5008L125.792 96.4709L124.976 99.5338Z" fill="#F9A825"/>
<path d="M121.852 98.5101C114.554 99.9213 107.058 99.9213 99.7611 98.5101V95.3349C107.075 96.5594 114.538 96.5594 121.852 95.3349V98.5101Z" fill="#F9A825"/>
<path d="M124.123 88.9844C116.825 90.3956 109.329 90.3956 102.032 88.9844V85.8092C109.346 87.0337 116.809 87.0337 124.123 85.8092V88.9844Z" fill="#F9A825"/>
<path d="M131.762 92.7947C124.464 94.2059 116.968 94.2059 109.671 92.7947V89.6195C116.985 90.844 124.448 90.844 131.762 89.6195V92.7947Z" fill="#F9A825"/>
<path d="M133.62 96.3933C126.322 97.8045 118.826 97.8045 111.529 96.3933V93.2181C118.843 94.4426 126.306 94.4426 133.62 93.2181V96.3933Z" fill="#F9A825"/>
<path d="M140.098 101.096L118.303 104.794L117.798 101.661L139.592 97.9628L140.098 101.096Z" fill="#F9A825"/>
<path d="M136.842 101.503C130.8 105.903 123.99 109.111 116.769 110.96L115.476 108.075C122.634 106.05 129.414 102.856 135.549 98.6175L136.842 101.503Z" fill="#F9A825"/>
<path d="M135.027 91.8748C128.984 96.2748 122.174 99.4835 114.954 101.332L113.661 98.4472C120.818 96.4226 127.598 93.2279 133.733 88.9896L135.027 91.8748Z" fill="#F9A825"/>
<path d="M143.519 92.0666C137.477 96.4667 130.667 99.6754 123.447 101.524L122.153 98.639C129.311 96.6145 136.091 93.4197 142.226 89.1815L143.519 92.0666Z" fill="#F9A825"/>
<path d="M146.673 94.541C140.631 98.9411 133.821 102.15 126.6 103.999L125.307 101.113C132.464 99.0889 139.245 95.8941 145.38 91.6559L146.673 94.541Z" fill="#F9A825"/>
<path d="M120.264 88.3455H119.218V89.4022H120.264V88.3455Z" fill="#00BF71"/>
<path d="M123.403 106.733H122.357V107.79H123.403V106.733Z" fill="#00BF71"/>
<path d="M106.665 88.3455H105.619V89.4022H106.665V88.3455Z" fill="#00BF71"/>
<path d="M130.934 101.449H129.888V102.506H130.934V101.449Z" fill="#00BF71"/>
<path d="M131.562 95.3201H130.516V96.3768H131.562V95.3201Z" fill="#00BF71"/>
<path d="M114.306 92.4266L113.094 91.596L112.624 92.2956L113.836 93.1262L114.306 92.4266Z" fill="#00BF71"/>
<path d="M126.65 94.7515L125.438 93.9209L124.968 94.6205L126.18 95.4511L126.65 94.7515Z" fill="#00BF71"/>
<path d="M111.586 98.7672L110.374 97.9366L109.904 98.6362L111.116 99.4668L111.586 98.7672Z" fill="#00BF71"/>
<path d="M119.258 98.7058L120.08 97.4815L119.388 97.0068L118.566 98.2311L119.258 98.7058Z" fill="#00BF71"/>
<path d="M124.907 100.185L125.729 98.961L125.037 98.4863L124.214 99.7106L124.907 100.185Z" fill="#00BF71"/>
<path d="M139.972 95.1125L140.794 93.8882L140.102 93.4136L139.28 94.6379L139.972 95.1125Z" fill="#00BF71"/>
<path d="M239 131.391H0V132H239V131.391Z" fill="#DEDCEF"/>
</g>
<defs>
<clipPath id="clip0">
<rect width="239" height="132" fill="white"/>
</clipPath>
</defs>
</svg>
